{
  "asset": {
    "version": "2.0",
    "generator": "Game-no-7 3D Modular Environment Builder",
    "copyright": "Game-no-7 asset repository"
  },
  "scene": 0,
  "scenes": [
    {
      "name": "Scene",
      "nodes": [
        0
      ]
    }
  ],
  "nodes": [
    {
      "name": "Wall_Hazard",
      "mesh": 0
    }
  ],
  "materials": [
    {
      "name": "Wall_Hazard_PBR",
      "pbrMetallicRoughness": {
        "baseColorTexture": {
          "index": 0
        },
        "metallicRoughnessTexture": {
          "index": 2
        },
        "metallicFactor": 0.85,
        "roughnessFactor": 0.55
      },
      "normalTexture": {
        "index": 1,
        "scale": 1.0
      },
      "emissiveTexture": {
        "index": 3
      },
      "emissiveFactor": [
        1.0,
        1.0,
        1.0
      ]
    }
  ],
  "textures": [
    {
      "sampler": 0,
      "source": 0
    },
    {
      "sampler": 0,
      "source": 1
    },
    {
      "sampler": 0,
      "source": 2
    },
    {
      "sampler": 0,
      "source": 3
    }
  ],
  "images": [
    {
      "name": "Wall_Hazard_PBR_BaseColor",
      "uri": "textures/Wall_Hazard_albedo.png"
    },
    {
      "name": "Wall_Hazard_PBR_Normal",
      "uri": "textures/Wall_Hazard_normal.png"
    },
    {
      "name": "Wall_Hazard_PBR_ORM",
      "uri": "textures/Wall_Hazard_ORM.png"
    },
    {
      "name": "Wall_Hazard_PBR_Emission",
      "uri": "textures/Wall_Hazard_emission.png"
    }
  ],
  "samplers": [
    {
      "magFilter": 9729,
      "minFilter": 9987,
      "wrapS": 10497,
      "wrapT": 10497
    }
  ],
  "meshes": [
    {
      "name": "Wall_Hazard_Mesh",
      "primitives": [
        {
          "attributes": {
            "POSITION": 1,
            "NORMAL": 2,
            "TANGENT": 3,
            "TEXCOORD_0": 4
          },
          "indices": 0,
          "material": 0
        }
      ]
    }
  ],
  "accessors": [
    {
      "bufferView": 0,
      "componentType": 5125,
      "count": 67326,
      "type": "SCALAR",
      "min": [
        0
      ],
      "max": [
        11856
      ]
    },
    {
      "bufferView": 1,
      "componentType": 5126,
      "count": 11857,
      "type": "VEC3",
      "min": [
        -0.5004069999999999,
        -0.13302355999999996,
        -0.022685720000000006
      ],
      "max": [
        0.5004637,
        0.13414799999999996,
        0.022281800000000004
      ]
    },
    {
      "bufferView": 2,
      "componentType": 5126,
      "count": 11857,
      "type": "VEC3",
      "min": [
        -0.9999998752893063,
        -0.9999988307835702,
        -0.9999998697809843
      ],
      "max": [
        0.9999998175018349,
        0.9999999977148358,
        0.999999952960739
      ]
    },
    {
      "bufferView": 3,
      "componentType": 5126,
      "count": 11857,
      "type": "VEC4",
      "min": [
        1.0,
        0.0,
        0.0,
        1.0
      ],
      "max": [
        1.0,
        0.0,
        0.0,
        1.0
      ]
    },
    {
      "bufferView": 4,
      "componentType": 5126,
      "count": 11857,
      "type": "VEC2",
      "min": [
        0.015029325999999964,
        0.015106815483871038
      ],
      "max": [
        0.979996061,
        0.9800291191011236
      ]
    }
  ],
  "bufferViews": [
    {
      "buffer": 0,
      "byteOffset": 0,
      "byteLength": 269304,
      "target": 34963
    },
    {
      "buffer": 0,
      "byteOffset": 269304,
      "byteLength": 142284,
      "target": 34962
    },
    {
      "buffer": 0,
      "byteOffset": 411588,
      "byteLength": 142284,
      "target": 34962
    },
    {
      "buffer": 0,
      "byteOffset": 553872,
      "byteLength": 189712,
      "target": 34962
    },
    {
      "buffer": 0,
      "byteOffset": 743584,
      "byteLength": 94856,
      "target": 34962
    }
  ],
  "buffers": [
    {
      "uri": "scene.bin",
      "byteLength": 838440
    }
  ]
}