{
  "asset": {
    "version": "2.0",
    "generator": "Game-no-7 3D Modular Environment Builder",
    "copyright": "Game-no-7 asset repository"
  },
  "scene": 0,
  "scenes": [
    {
      "name": "Scene",
      "nodes": [
        0
      ]
    }
  ],
  "nodes": [
    {
      "name": "Ground_Hazard",
      "mesh": 0
    }
  ],
  "materials": [
    {
      "name": "Ground_Hazard_PBR",
      "pbrMetallicRoughness": {
        "baseColorTexture": {
          "index": 0
        },
        "metallicRoughnessTexture": {
          "index": 2
        },
        "metallicFactor": 0.85,
        "roughnessFactor": 0.55
      },
      "normalTexture": {
        "index": 1,
        "scale": 1.0
      },
      "emissiveTexture": {
        "index": 3
      },
      "emissiveFactor": [
        1.0,
        1.0,
        1.0
      ]
    }
  ],
  "textures": [
    {
      "sampler": 0,
      "source": 0
    },
    {
      "sampler": 0,
      "source": 1
    },
    {
      "sampler": 0,
      "source": 2
    },
    {
      "sampler": 0,
      "source": 3
    }
  ],
  "images": [
    {
      "name": "Ground_Hazard_PBR_BaseColor",
      "uri": "textures/Ground_Hazard_albedo.png"
    },
    {
      "name": "Ground_Hazard_PBR_Normal",
      "uri": "textures/Ground_Hazard_normal.png"
    },
    {
      "name": "Ground_Hazard_PBR_ORM",
      "uri": "textures/Ground_Hazard_ORM.png"
    },
    {
      "name": "Ground_Hazard_PBR_Emission",
      "uri": "textures/Ground_Hazard_emission.png"
    }
  ],
  "samplers": [
    {
      "magFilter": 9729,
      "minFilter": 9987,
      "wrapS": 10497,
      "wrapT": 10497
    }
  ],
  "meshes": [
    {
      "name": "Ground_Hazard_Mesh",
      "primitives": [
        {
          "attributes": {
            "POSITION": 1,
            "NORMAL": 2,
            "TANGENT": 3,
            "TEXCOORD_0": 4
          },
          "indices": 0,
          "material": 0
        }
      ]
    }
  ],
  "accessors": [
    {
      "bufferView": 0,
      "componentType": 5125,
      "count": 2424,
      "type": "SCALAR",
      "min": [
        0
      ],
      "max": [
        532
      ]
    },
    {
      "bufferView": 1,
      "componentType": 5126,
      "count": 533,
      "type": "VEC3",
      "min": [
        -0.5,
        -0.06,
        -0.5
      ],
      "max": [
        0.5,
        0.018,
        0.5
      ]
    },
    {
      "bufferView": 2,
      "componentType": 5126,
      "count": 533,
      "type": "VEC3",
      "min": [
        -0.9960349739675667,
        -1.0,
        -0.9960349739675667
      ],
      "max": [
        0.9960349739675667,
        0.9977575653851118,
        0.9960349739675667
      ]
    },
    {
      "bufferView": 3,
      "componentType": 5126,
      "count": 533,
      "type": "VEC4",
      "min": [
        1.0,
        0.0,
        0.0,
        1.0
      ],
      "max": [
        1.0,
        0.0,
        0.0,
        1.0
      ]
    },
    {
      "bufferView": 4,
      "componentType": 5126,
      "count": 533,
      "type": "VEC2",
      "min": [
        0.001,
        0.001
      ],
      "max": [
        0.999,
        0.999
      ]
    }
  ],
  "bufferViews": [
    {
      "buffer": 0,
      "byteOffset": 0,
      "byteLength": 9696,
      "target": 34963
    },
    {
      "buffer": 0,
      "byteOffset": 9696,
      "byteLength": 6396,
      "target": 34962
    },
    {
      "buffer": 0,
      "byteOffset": 16092,
      "byteLength": 6396,
      "target": 34962
    },
    {
      "buffer": 0,
      "byteOffset": 22488,
      "byteLength": 8528,
      "target": 34962
    },
    {
      "buffer": 0,
      "byteOffset": 31016,
      "byteLength": 4264,
      "target": 34962
    }
  ],
  "buffers": [
    {
      "uri": "scene.bin",
      "byteLength": 35280
    }
  ]
}