{
  "asset": {
    "version": "2.0",
    "generator": "Game-no-7 3D Wall Builder (PBR Sci-Fi)",
    "copyright": "Uploaded wall asset model"
  },
  "scene": 0,
  "scenes": [
    {
      "name": "Scene",
      "nodes": [
        0
      ]
    }
  ],
  "nodes": [
    {
      "name": "Wall",
      "mesh": 0
    }
  ],
  "materials": [
    {
      "name": "Wall_SciFi_PBR",
      "pbrMetallicRoughness": {
        "baseColorTexture": {
          "index": 0
        },
        "metallicRoughnessTexture": {
          "index": 2
        },
        "metallicFactor": 0.8,
        "roughnessFactor": 0.6
      },
      "normalTexture": {
        "index": 1,
        "scale": 1.0
      },
      "emissiveTexture": {
        "index": 3
      },
      "emissiveFactor": [
        1.0,
        1.0,
        1.0
      ]
    }
  ],
  "textures": [
    {
      "sampler": 0,
      "source": 0
    },
    {
      "sampler": 0,
      "source": 1
    },
    {
      "sampler": 0,
      "source": 2
    },
    {
      "sampler": 0,
      "source": 3
    }
  ],
  "images": [
    {
      "name": "Wall_BaseColor",
      "uri": "textures/Wall_albedo.png"
    },
    {
      "name": "Wall_Normal",
      "uri": "textures/Wall_normal.png"
    },
    {
      "name": "Wall_ORM",
      "uri": "textures/Wall_ORM.png"
    },
    {
      "name": "Wall_Emission",
      "uri": "textures/Wall_emission.png"
    }
  ],
  "samplers": [
    {
      "magFilter": 9729,
      "minFilter": 9987,
      "wrapS": 10497,
      "wrapT": 10497
    }
  ],
  "meshes": [
    {
      "name": "Wall_Mesh",
      "primitives": [
        {
          "attributes": {
            "POSITION": 1,
            "NORMAL": 2,
            "TANGENT": 3,
            "TEXCOORD_0": 4
          },
          "indices": 0,
          "material": 0
        }
      ]
    }
  ],
  "accessors": [
    {
      "bufferView": 0,
      "componentType": 5125,
      "count": 67326,
      "type": "SCALAR",
      "min": [
        0
      ],
      "max": [
        11856
      ]
    },
    {
      "bufferView": 1,
      "componentType": 5126,
      "count": 11857,
      "type": "VEC3",
      "min": [
        -0.5004069805145264,
        -0.13302356004714966,
        -0.022685719653964043
      ],
      "max": [
        0.5004637241363525,
        0.1341480016708374,
        0.022281799465417862
      ]
    },
    {
      "bufferView": 2,
      "componentType": 5126,
      "count": 11857,
      "type": "VEC3",
      "min": [
        -0.9999997615814209,
        -0.9999996423721313,
        -0.9999998807907104
      ],
      "max": [
        0.9999998211860657,
        1.0,
        0.9999999403953552
      ]
    },
    {
      "bufferView": 3,
      "componentType": 5126,
      "count": 11857,
      "type": "VEC4",
      "min": [
        1.0,
        0.0,
        0.0,
        1.0
      ],
      "max": [
        1.0,
        0.0,
        0.0,
        1.0
      ]
    },
    {
      "bufferView": 4,
      "componentType": 5126,
      "count": 11857,
      "type": "VEC2",
      "min": [
        0.0,
        0.0
      ],
      "max": [
        1.0,
        1.0
      ]
    }
  ],
  "bufferViews": [
    {
      "buffer": 0,
      "byteOffset": 0,
      "byteLength": 269304,
      "target": 34963
    },
    {
      "buffer": 0,
      "byteOffset": 269304,
      "byteLength": 142284,
      "target": 34962
    },
    {
      "buffer": 0,
      "byteOffset": 411588,
      "byteLength": 142284,
      "target": 34962
    },
    {
      "buffer": 0,
      "byteOffset": 553872,
      "byteLength": 189712,
      "target": 34962
    },
    {
      "buffer": 0,
      "byteOffset": 743584,
      "byteLength": 94856,
      "target": 34962
    }
  ],
  "buffers": [
    {
      "uri": "scene.bin",
      "byteLength": 838440
    }
  ]
}